<svg width="25" height="24" viewBox="0 0 25 24" fill="none" xmlns="http://www.w3.org/2000/svg">
<path d="M12.6001 23C11.0567 21.6835 9.62602 20.2402 8.32315 18.6852C6.36797 16.35 4.0462 12.8722 4.0462 9.55818C4.04536 7.86568 4.54662 6.21097 5.48655 4.80347C6.42648 3.39596 7.76283 2.29893 9.32648 1.6512C10.8901 1.00348 12.6108 0.834177 14.2707 1.16473C15.9306 1.49527 17.4551 2.31081 18.6514 3.50813C19.4478 4.30103 20.0791 5.24401 20.5086 6.28249C20.9382 7.32098 21.1576 8.43435 21.154 9.55818C21.154 12.8722 18.8322 16.35 16.877 18.6852C15.5742 20.2402 14.1435 21.6835 12.6001 23ZM12.6001 5.89222C11.6278 5.89222 10.6954 6.27846 10.0079 6.96596C9.32037 7.65346 8.93414 8.58591 8.93414 9.55818C8.93414 10.5304 9.32037 11.4629 10.0079 12.1504C10.6954 12.8379 11.6278 13.2241 12.6001 13.2241C13.5724 13.2241 14.5048 12.8379 15.1923 12.1504C15.8798 11.4629 16.266 10.5304 16.266 9.55818C16.266 8.58591 15.8798 7.65346 15.1923 6.96596C14.5048 6.27846 13.5724 5.89222 12.6001 5.89222Z" fill="#FA8B02"/>
</svg>
