<svg width="25" height="24" viewBox="0 0 25 24" fill="none" xmlns="http://www.w3.org/2000/svg">
<path d="M4.76676 2.83301C3.7943 2.83301 2.86167 3.21932 2.17404 3.90695C1.48641 4.59458 1.1001 5.52721 1.1001 6.49967V6.86818L12.1001 12.7917L23.1001 6.87001V6.49967C23.1001 5.52721 22.7138 4.59458 22.0262 3.90695C21.3385 3.21932 20.4059 2.83301 19.4334 2.83301H4.76676ZM23.1001 8.95084L12.5346 14.6397C12.4011 14.7116 12.2518 14.7492 12.1001 14.7492C11.9484 14.7492 11.7991 14.7116 11.6656 14.6397L1.1001 8.95084V17.4997C1.1001 18.4721 1.48641 19.4048 2.17404 20.0924C2.86167 20.78 3.7943 21.1663 4.76676 21.1663H19.4334C20.4059 21.1663 21.3385 20.78 22.0262 20.0924C22.7138 19.4048 23.1001 18.4721 23.1001 17.4997V8.95084Z" fill="#FA8B02"/>
</svg>
